<svg class="Path_70" viewBox="0 0 47.891 47.891">
			<path id="Path_70" d="M 43.21439743041992 0 L 4.676883220672607 0 C 2.098021745681763 0 0 2.098021745681763 0 4.676883220672607 L 0 33.29940795898438 C 0 35.87826538085938 2.098021745681763 37.97629165649414 4.676883220672607 37.97629165649414 L 19.26875877380371 37.97629165649414 L 19.26875877380371 42.27902221679688 L 18.3333797454834 42.27902221679688 C 17.08450508117676 42.27902221679688 15.91054058074951 42.76570892333984 15.02667617797852 43.64919662475586 C 14.14318370819092 44.53305053710938 13.65649890899658 45.70702743530273 13.65649890899658 46.95590591430664 C 13.65649890899658 47.47255325317383 14.07522583007812 47.89128112792969 14.59187507629395 47.89128112792969 L 33.29940795898438 47.89128112792969 C 33.81605529785156 47.89128112792969 34.23478317260742 47.47255325317383 34.23478317260742 46.95590591430664 C 34.23478317260742 44.37704086303711 32.13676071166992 42.27902221679688 29.55789947509766 42.27902221679688 L 28.62252426147461 42.27902221679688 L 28.62252426147461 37.97629165649414 L 43.21439743041992 37.97629165649414 C 45.79325866699219 37.97629165649414 47.89128112792969 35.87826538085938 47.89128112792969 33.29940795898438 L 47.89128112792969 4.676883220672607 C 47.89128112792969 2.098021745681763 45.79325866699219 0 43.21439743041992 0 Z M 4.676883220672607 1.870753169059753 L 43.21439743041992 1.870753169059753 C 44.76179504394531 1.870753169059753 46.02052688598633 3.129489421844482 46.02052688598633 4.676883220672607 L 46.02052688598633 28.62252426147461 L 41.71779632568359 28.62252426147461 L 41.71779632568359 7.108861923217773 C 41.71779632568359 6.592212200164795 41.29906845092773 6.17348575592041 40.78241729736328 6.17348575592041 L 33.29940795898438 6.17348575592041 C 32.78275680541992 6.17348575592041 32.36402893066406 6.592212200164795 32.36402893066406 7.108861923217773 L 32.36402893066406 28.62252426147461 L 27.68202972412109 28.62252426147461 C 27.67216491699219 27.65498733520508 27.64695358276367 26.70134353637695 27.60676383972168 25.77620124816895 C 27.44307136535645 21.96673202514648 27.07001686096191 19.41491317749023 26.87600135803223 18.29245948791504 C 28.80594635009766 16.87149238586426 29.33282470703125 14.23781776428223 28.15300369262695 12.19168186187744 L 24.91097450256348 6.576494216918945 C 24.74362945556641 6.287111759185791 24.43488121032715 6.108805656433105 24.10092353820801 6.108805656433105 C 23.76659965515137 6.108805656433105 23.45785140991211 6.287111759185791 23.29087257385254 6.576494216918945 L 20.04737854003906 12.19204616546631 C 18.93515968322754 14.12126064300537 19.32940483093262 16.6201000213623 21.07665824890137 18.09478759765625 C 20.87423706054688 19.21394538879395 20.46574211120605 21.85712432861328 20.28816604614258 25.77437782287598 C 20.24614715576172 26.70938873291016 20.21947288513184 27.66376113891602 20.20924186706543 28.62252426147461 L 15.52724361419678 28.62252426147461 L 15.52724361419678 14.59187507629395 C 15.52724361419678 14.44352912902832 15.49216747283936 14.3083381652832 15.43480110168457 14.1881275177002 C 15.43224430084229 14.18337726593018 15.43078231811523 14.17826366424561 15.42859077453613 14.17351341247559 L 11.68708324432373 6.690500259399414 C 11.52850818634033 6.373714447021484 11.20477962493896 6.17348575592041 10.8503589630127 6.17348575592041 C 10.49594020843506 6.17348575592041 10.17221164703369 6.373715400695801 10.01363563537598 6.690500259399414 L 6.272130012512207 14.17351341247559 C 6.269937515258789 14.17826366424561 6.268476009368896 14.18337726593018 6.266283988952637 14.1881275177002 C 6.207822799682617 14.30943489074707 6.173477172851562 14.44681835174561 6.173477172851562 14.59187507629395 L 6.173477172851562 28.62252426147461 L 1.870744585990906 28.62252426147461 L 1.870744585990906 4.676883220672607 C 1.870744585990906 3.129489421844482 3.129481077194214 1.870753169059753 4.676874160766602 1.870753169059753 Z M 34.23478317260742 28.62252426147461 L 34.23478317260742 8.044238090515137 L 39.84704208374023 8.044238090515137 L 39.84704208374023 9.91499137878418 L 38.91166687011719 9.91499137878418 C 38.39501953125 9.91499137878418 37.97629165649414 10.33371829986572 37.97629165649414 10.85036849975586 C 37.97629165649414 11.36701774597168 38.39501953125 11.78574466705322 38.91166687011719 11.78574466705322 L 39.84704208374023 11.78574466705322 L 39.84704208374023 14.59187507629395 L 38.91166687011719 14.59187507629395 C 38.39501953125 14.59187507629395 37.97629165649414 15.0106029510498 37.97629165649414 15.52725124359131 C 37.97629165649414 16.04389953613281 38.39501953125 16.46262741088867 38.91166687011719 16.46262741088867 L 39.84704208374023 16.46262741088867 L 39.84704208374023 19.26875877380371 L 38.91166687011719 19.26875877380371 C 38.39501953125 19.26875877380371 37.97629165649414 19.68748474121094 37.97629165649414 20.20413398742676 C 37.97629165649414 20.72078323364258 38.39501953125 21.13951110839844 38.91166687011719 21.13951110839844 L 39.84704208374023 21.13951110839844 L 39.84704208374023 24.88101577758789 L 38.91166687011719 24.88101577758789 C 38.39501953125 24.88101577758789 37.97629165649414 25.29974365234375 37.97629165649414 25.8163948059082 C 37.97629165649414 26.33304214477539 38.39501953125 26.75177192687988 38.91166687011719 26.75177192687988 L 39.84704208374023 26.75177192687988 L 39.84704208374023 28.62252426147461 L 34.23478317260742 28.62252426147461 Z M 24.10091590881348 19.20412254333496 C 24.44071960449219 19.20412254333496 24.77906227111816 19.16502571105957 25.11009979248047 19.09194946289062 C 25.28365707397461 20.20453453063965 25.53869438171387 22.17321014404297 25.68959617614746 24.88105201721191 L 22.20787048339844 24.88105201721191 C 22.36608123779297 22.17503356933594 22.63317489624023 20.17566871643066 22.81769180297852 19.02544593811035 C 23.23203468322754 19.14346313476562 23.66354942321777 19.20411491394043 24.10091781616211 19.20411491394043 Z M 24.10091590881348 17.3333683013916 C 21.96306228637695 17.3333683013916 20.58447647094727 15.00661945343018 21.6678409576416 13.12709331512451 L 24.10091590881348 8.914971351623535 L 26.53252792358398 13.12671852111816 C 27.61186599731445 14.99856662750244 26.25228118896484 17.33336067199707 24.10091590881348 17.33336067199707 Z M 22.12200355529785 26.75177192687988 L 25.77179336547852 26.75177192687988 C 25.79152297973633 27.36634063720703 25.8050422668457 27.99151229858398 25.81161880493164 28.62252426147461 L 22.07998275756836 28.62252426147461 C 22.0869255065918 27.99552917480469 22.10117530822754 27.37036323547363 22.12200164794922 26.75177192687988 Z M 11.78571891784668 28.62252426147461 L 11.78571891784668 15.52725124359131 L 13.65647220611572 15.52725124359131 L 13.65647220611572 28.62252426147461 L 11.78571891784668 28.62252426147461 Z M 8.044211387634277 28.62252426147461 L 8.044211387634277 15.52725124359131 L 9.91496467590332 15.52725124359131 L 9.91496467590332 28.62252426147461 L 8.044211387634277 28.62252426147461 Z M 8.622244834899902 13.65649890899658 L 10.85033988952637 9.200307846069336 L 13.07843494415283 13.65649890899658 L 8.622244834899902 13.65649890899658 Z M 32.20355606079102 46.02052688598633 L 15.68648815155029 46.02052688598633 C 15.82387161254883 45.63066482543945 16.04821586608887 45.27331924438477 16.34929084777832 44.97188568115234 C 16.87982559204102 44.44171905517578 17.58427810668945 44.14977645874023 18.33330917358398 44.14977645874023 L 29.55782699584961 44.14977645874023 C 30.77747535705566 44.14977645874023 31.81771469116211 44.93169784545898 32.20355606079102 46.02053070068359 Z M 26.7516975402832 42.27902221679688 L 21.13943672180176 42.27902221679688 L 21.13943672180176 37.97629165649414 L 26.7516975402832 37.97629165649414 L 26.7516975402832 42.27902221679688 Z M 43.21432113647461 36.10553741455078 L 4.676808834075928 36.10553741455078 C 3.129415273666382 36.10553741455078 1.870679020881653 34.84679794311523 1.870679020881653 33.29940795898438 L 1.870679020881653 30.49327659606934 L 46.02045440673828 30.49327659606934 L 46.02045440673828 33.29940795898438 C 46.02045440673828 34.84679794311523 44.76172256469727 36.10553741455078 43.21432113647461 36.10553741455078 Z M 43.21432113647461 36.10553741455078">
			</path>
		</svg>